<svg width="33" height="33" viewBox="0 0 33 33" fill="none" xmlns="http://www.w3.org/2000/svg">
<circle cx="16.375" cy="16.375" r="15.75" fill="#FFF2EC" stroke="#FFB391" stroke-width="0.75"/>
<g clip-path="url(#clip0_251_19789)">
<path d="M24.1 12.5426V12.2C24.099 11.9347 24.0101 11.6773 23.8473 11.4679C23.6845 11.2585 23.4568 11.1089 23.2 11.0426V10.7C23.199 10.4347 23.1101 10.1773 22.9473 9.96787C22.7845 9.75846 22.5568 9.60891 22.3 9.5426V9.2C22.3 8.88174 22.1736 8.57652 21.9485 8.35147C21.7235 8.12643 21.4183 8 21.1 8H10.9C10.5817 8 10.2765 8.12643 10.0515 8.35147C9.82643 8.57652 9.7 8.88174 9.7 9.2V9.5426C9.44316 9.60891 9.21552 9.75846 9.05269 9.96787C8.88985 10.1773 8.80099 10.4347 8.8 10.7V11.0426C8.54316 11.1089 8.31552 11.2585 8.15269 11.4679C7.98985 11.6773 7.90099 11.9347 7.9 12.2V12.5426C7.64316 12.6089 7.41552 12.7585 7.25269 12.9679C7.08985 13.1773 7.00099 13.4347 7 13.7V14.9C7 14.9796 7.03161 15.0559 7.08787 15.1121C7.14413 15.1684 7.22044 15.2 7.3 15.2C7.37956 15.2 7.45587 15.1684 7.51213 15.1121C7.56839 15.0559 7.6 14.9796 7.6 14.9V13.7C7.6 13.5409 7.66321 13.3883 7.77574 13.2757C7.88826 13.1632 8.04087 13.1 8.2 13.1H23.8C23.9591 13.1 24.1117 13.1632 24.2243 13.2757C24.3368 13.3883 24.4 13.5409 24.4 13.7V22.7C24.4 22.8591 24.3368 23.0117 24.2243 23.1243C24.1117 23.2368 23.9591 23.3 23.8 23.3H14.5C14.4406 23.3 14.3826 23.3177 14.3332 23.3507L11.287 25.3907C11.2786 25.3968 11.2687 25.4003 11.2584 25.4009C11.2481 25.4015 11.2378 25.3991 11.2288 25.394C11.2195 25.3896 11.2116 25.3826 11.2063 25.3738C11.201 25.365 11.1984 25.3548 11.1988 25.3445V23.6C11.1988 23.5204 11.1672 23.4441 11.1109 23.3879C11.0547 23.3316 10.9784 23.3 10.8988 23.3H8.2C8.04087 23.3 7.88826 23.2368 7.77574 23.1243C7.66321 23.0117 7.6 22.8591 7.6 22.7V16.1C7.6 16.0204 7.56839 15.9441 7.51213 15.8879C7.45587 15.8316 7.37956 15.8 7.3 15.8C7.22044 15.8 7.14413 15.8316 7.08787 15.8879C7.03161 15.9441 7 16.0204 7 16.1V22.7C7 23.0183 7.12643 23.3235 7.35147 23.5485C7.57652 23.7736 7.88174 23.9 8.2 23.9H10.6V25.3433C10.5997 25.4294 10.6165 25.5148 10.6492 25.5944C10.682 25.6741 10.7302 25.7465 10.791 25.8075C10.8518 25.8685 10.9241 25.9169 11.0036 25.95C11.0832 25.983 11.1685 26 11.2546 26C11.3841 25.9998 11.5107 25.9616 11.6188 25.8902L14.59 23.9H23.8C24.1183 23.9 24.4235 23.7736 24.6485 23.5485C24.8736 23.3235 25 23.0183 25 22.7V13.7C24.999 13.4347 24.9101 13.1773 24.7473 12.9679C24.5845 12.7585 24.3568 12.6089 24.1 12.5426ZM10.9 8.6H21.1C21.2591 8.6 21.4117 8.66321 21.5243 8.77574C21.6368 8.88826 21.7 9.04087 21.7 9.2V9.5H10.3V9.2C10.3 9.04087 10.3632 8.88826 10.4757 8.77574C10.5883 8.66321 10.7409 8.6 10.9 8.6ZM10 10.1H22C22.1591 10.1 22.3117 10.1632 22.4243 10.2757C22.5368 10.3883 22.6 10.5409 22.6 10.7V11H9.4V10.7C9.4 10.5409 9.46321 10.3883 9.57574 10.2757C9.68826 10.1632 9.84087 10.1 10 10.1ZM9.1 11.6H22.9C23.0591 11.6 23.2117 11.6632 23.3243 11.7757C23.4368 11.8883 23.5 12.0409 23.5 12.2V12.5H8.5V12.2C8.5 12.0409 8.56321 11.8883 8.67574 11.7757C8.78826 11.6632 8.94087 11.6 9.1 11.6Z" fill="#F68C2C"/>
<path d="M9.40132 15.1999H22.6013C22.6809 15.1999 22.7572 15.1683 22.8135 15.112C22.8697 15.0558 22.9013 14.9795 22.9013 14.8999C22.9013 14.8203 22.8697 14.744 22.8135 14.6878C22.7572 14.6315 22.6809 14.5999 22.6013 14.5999H9.40132C9.32175 14.5999 9.24545 14.6315 9.18919 14.6878C9.13293 14.744 9.10132 14.8203 9.10132 14.8999C9.10132 14.9795 9.13293 15.0558 9.18919 15.112C9.24545 15.1683 9.32175 15.1999 9.40132 15.1999Z" fill="#F68C2C"/>
<path d="M9.40132 17.2998H22.6013C22.6809 17.2998 22.7572 17.2682 22.8135 17.212C22.8697 17.1557 22.9013 17.0794 22.9013 16.9998C22.9013 16.9203 22.8697 16.844 22.8135 16.7877C22.7572 16.7314 22.6809 16.6998 22.6013 16.6998H9.40132C9.32175 16.6998 9.24545 16.7314 9.18919 16.7877C9.13293 16.844 9.10132 16.9203 9.10132 16.9998C9.10132 17.0794 9.13293 17.1557 9.18919 17.212C9.24545 17.2682 9.32175 17.2998 9.40132 17.2998Z" fill="#F68C2C"/>
<path d="M9.40132 19.3997H22.6013C22.6809 19.3997 22.7572 19.3681 22.8135 19.3119C22.8697 19.2556 22.9013 19.1793 22.9013 19.0997C22.9013 19.0202 22.8697 18.9439 22.8135 18.8876C22.7572 18.8314 22.6809 18.7997 22.6013 18.7997H9.40132C9.32175 18.7997 9.24545 18.8314 9.18919 18.8876C9.13293 18.9439 9.10132 19.0202 9.10132 19.0997C9.10132 19.1793 9.13293 19.2556 9.18919 19.3119C9.24545 19.3681 9.32175 19.3997 9.40132 19.3997Z" fill="#F68C2C"/>
<path d="M12.4003 20.8996C12.3208 20.8996 12.2445 20.9312 12.1882 20.9875C12.1319 21.0438 12.1003 21.1201 12.1003 21.1996C12.1003 21.2792 12.1319 21.3555 12.1882 21.4118C12.2445 21.468 12.3208 21.4996 12.4003 21.4996H17.5003C17.5799 21.4996 17.6562 21.468 17.7125 21.4118C17.7687 21.3555 17.8003 21.2792 17.8003 21.1996C17.8003 21.1201 17.7687 21.0438 17.7125 20.9875C17.6562 20.9312 17.5799 20.8996 17.5003 20.8996H12.4003Z" fill="#F68C2C"/>
<path d="M9.40132 21.4996H11.2013C11.2809 21.4996 11.3572 21.468 11.4135 21.4118C11.4697 21.3555 11.5013 21.2792 11.5013 21.1996C11.5013 21.1201 11.4697 21.0438 11.4135 20.9875C11.3572 20.9312 11.2809 20.8996 11.2013 20.8996H9.40132C9.32175 20.8996 9.24545 20.9312 9.18919 20.9875C9.13293 21.0438 9.10132 21.1201 9.10132 21.1996C9.10132 21.2792 9.13293 21.3555 9.18919 21.4118C9.24545 21.468 9.32175 21.4996 9.40132 21.4996Z" fill="#F68C2C"/>
<path d="M7 14.5769H7.59885V16.3077H7V14.5769Z" fill="#F68C2C"/>
</g>
<rect x="7.5" y="8.5" width="17" height="17" stroke="#FFB391"/>
<defs>
<clipPath id="clip0_251_19789">
<rect x="7" y="8" width="18" height="18" fill="white"/>
</clipPath>
</defs>
</svg>
