<svg width="122" height="24" viewBox="0 0 122 24" fill="none" xmlns="http://www.w3.org/2000/svg">
<path fill-rule="evenodd" clip-rule="evenodd" d="M109.14 1.48281C110.147 1.46494 111.113 1.33602 112.09 1.0288C112.794 0.806388 113.589 0.756069 114.402 0.824166C115.295 0.899577 116.215 0.624216 117.142 0.698942C117.715 0.745473 118.429 0.351341 118.69 1.26194C119.075 1.31365 119.46 1.36536 119.943 1.43017C119.966 1.83663 119.993 2.23049 120.007 2.62344C120.01 2.70714 119.944 2.8604 119.955 2.86417C120.781 3.18279 120.563 4.25912 121.321 4.659C121.734 4.87632 122.001 5.69064 121.737 5.95724C121.205 6.49595 121.421 7.0596 121.506 7.67112C121.081 8.51891 120.359 9.05715 119.5 9.48479C118.653 9.90727 117.88 10.481 117.016 10.8634C115.263 11.6401 113.475 12.3396 111.696 13.0575C109.859 13.7985 107.995 14.4587 106.099 15.0498C104.368 15.59 102.651 16.1749 100.92 16.7188C99.8648 17.0502 98.8154 17.3996 97.7664 17.7494C97.7213 17.7643 97.7082 17.8652 97.6189 18.0609C98.031 18.0491 98.4377 17.9193 98.7041 18.0593C99.0545 18.2427 99.3038 18.449 99.6261 18.0936C100.032 18.6667 100.723 17.9098 101.138 18.4385C101.525 18.2273 102.009 18.2506 102.344 18.367C102.739 18.503 103.014 18.7101 103.416 18.4057C103.53 18.3195 103.941 18.401 104.024 18.5276C104.387 19.0814 104.851 18.4422 105.191 18.6843C105.602 18.9774 105.945 18.9687 106.272 18.5995C106.866 18.8868 107.492 18.6664 108.103 18.7394C108.63 18.8028 109.231 18.8807 109.68 18.6886C109.969 18.5649 110.127 18.5612 110.378 18.6445C111.197 18.9153 112.04 18.6904 112.878 18.8011C113.723 18.913 114.596 18.7795 115.457 18.7651C116.54 18.7465 117.624 18.7341 118.707 18.7276C119.358 18.7236 119.699 19.2183 119.917 19.6808C120.082 20.0317 120.059 20.4058 120.592 20.4305C120.663 20.4342 120.723 20.8323 120.821 21.156C120.511 21.143 120.242 21.1312 119.972 21.1192C119.965 21.1903 119.957 21.2615 119.95 21.3329C120.174 21.4005 120.397 21.4677 120.653 21.5452C120.62 21.6216 120.604 21.7895 120.514 21.8479C120.298 21.9872 120.059 22.1363 119.81 22.1735C118.416 22.3828 117.024 22.6289 115.619 22.7332C113.254 22.9088 110.882 23.0367 108.509 23.0897C106.885 23.1264 105.256 23.1249 103.633 23.122C102.171 23.1196 100.691 23.0555 99.2283 23.0162C97.3522 22.9658 95.4854 22.8517 93.6173 22.7055C92.4297 22.6125 91.2455 22.4725 90.0597 22.351C89.2754 22.2702 88.7614 21.7026 88.1598 21.2918C87.9145 20.7743 87.9998 20.2067 87.5146 19.6833C86.9624 19.0866 87.0421 16.5071 87.4715 15.7403C87.7895 15.1725 88.4474 14.8935 88.9812 14.5166C89.9159 13.8561 90.917 13.3442 92.0523 13.0993C92.1746 13.0725 92.3574 13.006 92.3843 12.9179C92.606 12.1857 93.4565 12.5077 93.839 12.0616C94.6988 12.1668 95.4351 11.7597 96.2178 11.5428C96.3518 11.5057 96.5671 11.5549 96.6254 11.4761C97.3869 10.4426 98.6593 10.491 99.7073 10.0713C100.034 9.94013 100.397 9.88171 100.704 9.71943C100.915 9.60824 101.059 9.37614 101.233 9.19805C101.084 9.05657 101.013 8.93605 100.953 8.94015C99.6679 9.02419 98.3852 9.19644 97.0997 9.19936C95.4258 9.20249 93.77 9.47097 92.0824 9.31948C91.2758 9.24753 90.4607 9.47463 89.6206 9.45605C88.0721 9.42133 86.5182 9.70252 84.9745 9.62234C82.3222 9.48377 79.6808 9.93217 77.031 9.54862C75.9688 9.94643 74.8409 9.5435 73.7581 9.74792C73.4664 9.80343 73.143 9.69864 72.8341 9.68739C72.3854 9.67076 71.9365 9.66298 71.4882 9.66761C69.6819 9.68565 67.8761 9.7154 66.07 9.72975C65.3077 9.73521 64.5431 9.68881 63.7815 9.70814C61.6309 9.76234 59.4815 9.65071 57.3315 9.60418C56.2131 9.57979 55.0977 9.73902 53.9898 9.43111C52.7468 9.84154 51.4681 9.51038 50.2073 9.52209C48.683 9.5359 47.157 9.49302 45.6314 9.46513C43.661 9.42927 41.6909 9.38787 39.7206 9.34062C38.4699 9.3102 37.2188 9.27063 35.9679 9.2248C34.4514 9.16926 32.9371 9.06197 31.4178 9.03618C29.1083 8.99646 26.7983 8.81135 24.4892 8.67645C21.6062 8.50837 18.723 8.34326 15.8411 8.14859C14.2532 8.04131 12.667 7.88826 11.082 7.73542C9.19391 7.55329 7.30284 7.38552 5.42053 7.14346C4.06368 6.96866 2.71919 6.71654 1.34507 6.66822C1.0095 6.65617 0.681733 6.21036 0.218106 5.86588C0.479305 5.77115 0.638012 5.67151 0.804299 5.66084C1.30493 5.62822 1.80949 5.63033 2.40408 5.61664C1.86775 4.64245 0.529728 5.32833 0.152301 4.42895C0.516801 4.3798 0.90998 4.32714 1.30315 4.27448C1.30977 4.17699 1.31682 4.0798 1.32343 3.9823C1.03085 3.87115 0.738693 3.76031 0.350195 3.61288C0.603227 3.1622 0.850472 2.72186 1.19116 2.11685C1.64208 2.10709 2.37679 1.89598 2.92557 2.12942C3.5913 2.41285 4.27668 1.8642 4.88217 2.40186C5.03978 2.54187 5.35569 1.88472 5.67032 2.33414C6.00712 2.81657 6.27927 1.91445 6.59738 2.32447C6.89422 2.70723 7.28234 2.23797 7.37237 2.30995C7.94243 2.76276 8.52228 2.32018 9.08834 2.43668C9.69182 2.56064 10.3227 2.60192 10.9379 2.58949C11.4866 2.57866 11.9944 2.60349 12.4967 2.87112C12.6739 2.96587 13.0453 2.99439 13.1398 2.88835C13.4551 2.53359 13.652 2.76894 13.9528 2.89955C14.1691 2.99344 14.5138 2.77248 14.7438 2.85496C15.0116 2.95146 15.2158 3.1961 15.4124 2.80337C16.2234 3.33976 17.2099 2.42322 18.0073 3.15503C18.085 3.2261 18.2859 3.23794 18.3921 3.19349C19.6351 2.6736 20.9168 3.08076 22.1805 3.09218C24.0218 3.10908 25.8631 3.12157 27.7037 3.15068C29.1804 3.17413 30.6581 3.18865 32.1338 3.26733C32.918 3.30925 33.7646 2.9688 34.4827 3.60221C34.532 3.64588 34.6821 3.63777 34.7462 3.59569C36.0298 2.75295 37.3518 3.81661 38.6481 3.5889C38.8651 3.55045 39.1179 3.64346 39.3182 3.57603C41.1032 2.97349 42.9615 3.46746 44.7788 3.30431C46.1127 3.18467 47.473 3.31051 48.8205 3.30217C50.4929 3.29225 52.1643 3.25162 53.836 3.23666C54.0045 3.23524 54.1769 3.31118 54.3434 3.36365C55.7049 3.79385 57.0944 3.51133 58.4706 3.59426C58.7738 3.61214 59.1336 3.53092 59.3818 3.36925C59.9473 3.0006 60.6198 3.10459 61.0729 3.31531C61.5554 3.54081 61.9433 3.50906 62.3945 3.48237C63.2827 3.42981 64.1972 3.55517 65.0249 3.12434C66.4656 3.25587 67.9102 3.12497 69.3389 3.07961C70.5157 3.04176 71.7284 3.23672 72.9052 2.88334C73.6778 2.65205 74.5144 2.8544 75.2743 3.08251C75.5914 3.1775 75.8691 3.30241 76.1851 3.21719C76.526 3.12567 76.8636 2.88802 77.1902 2.91561C77.5482 2.9463 77.8243 2.8569 78.1524 2.78512C79.0743 2.58329 80.0339 2.43881 80.9084 3.05738C80.9782 3.10673 81.0722 3.14916 81.1539 3.1488C81.7426 3.14471 82.3398 3.18576 82.9161 3.09996C83.5862 3.00114 84.3164 3.10286 84.9058 2.65274C84.9699 2.60368 85.0877 2.61609 85.1812 2.61119C85.9556 2.57141 86.73 2.52208 87.505 2.50058C88.2811 2.47929 89.0181 2.2609 89.8324 2.33033C90.5771 2.39447 91.3597 2.34109 92.127 2.37426C92.5641 2.41596 93.1092 2.63963 93.4177 2.46431C94.3516 1.93358 95.4183 2.69115 96.3035 2.11224C97.2357 2.50079 98.1595 1.99125 99.0906 2.13531C99.3503 2.17559 99.6605 2.30493 99.8643 2.21463C100.963 1.7259 102.201 2.23564 103.292 1.77036C104.08 2.12404 104.811 1.84071 105.582 1.69474C106.162 1.58494 106.803 1.76449 107.416 1.81551C107.889 1.22905 108.582 1.66863 109.14 1.48281Z" fill="#F68C2C"/>
</svg>
