<svg width="324" height="852" viewBox="0 0 324 852" fill="none" xmlns="http://www.w3.org/2000/svg">
<path opacity="0.2" d="M258.775 0.235341L246.52 21.1086L234.597 0.81328L234.492 0.628035H209.99L209.771 0.257547L209.552 0.628035H185.051L173.022 21.1086L161.092 0.805863L160.986 0.620618H135.617L148.196 21.9978L148.301 22.1831H172.373H197.313L208.708 41.6411C208.521 41.8221 208.387 42.0502 208.323 42.3005H160.556L148.309 63.1516H123.807L112.178 82.9728C112.051 82.9344 111.919 82.9145 111.786 82.9135C111.655 82.9139 111.526 82.9339 111.401 82.9728L99.8479 63.3443L99.7424 63.159H75.6853L87.4876 43.0712H136.921L125.059 22.8796C125.241 22.7252 125.383 22.5301 125.473 22.3107C125.563 22.0913 125.598 21.8539 125.576 21.6184C125.554 21.3829 125.474 21.1561 125.344 20.9569C125.214 20.7578 125.038 20.5921 124.829 20.4738C124.621 20.3554 124.386 20.2878 124.146 20.2766C123.905 20.2653 123.666 20.3108 123.447 20.4092C123.228 20.5076 123.036 20.6561 122.888 20.8423C122.739 21.0284 122.638 21.2468 122.593 21.4791H75.263L63.1063 0.783657L62.9932 0.598413H37.624L49.8938 21.4717L62.3371 42.6933L49.8712 63.9074H74.8105L86.9446 84.5585L87.0502 84.7437H110.346C110.448 85.0349 110.641 85.2874 110.896 85.4662C111.151 85.6449 111.457 85.7409 111.771 85.7409C112.084 85.7409 112.39 85.6449 112.646 85.4662C112.901 85.2874 113.094 85.0349 113.196 84.7437H136.492L148.739 63.8926H172.803L184.621 84.0027H160.549L148.301 104.839H147.864L148.083 105.209L147.864 105.58H148.301L160.443 126.253L160.549 126.438H185.925L174.063 106.254C174.341 105.978 174.498 105.606 174.5 105.217C174.501 105.025 174.462 104.835 174.387 104.658C174.312 104.482 174.202 104.321 174.063 104.187L185.488 84.7437H234.929L222.456 63.5221L234.522 43.0415L246.52 22.5906L258.338 42.671L258.119 43.0415H258.556L258.775 43.412L258.986 43.0415H283.488L295.743 22.1978H318.601C318.668 22.4698 318.812 22.7176 319.016 22.9125C319.221 23.1074 319.477 23.2414 319.756 23.2991C320.034 23.3569 320.324 23.3359 320.591 23.2387C320.858 23.1414 321.092 22.9719 321.265 22.7496C321.438 22.5274 321.543 22.2616 321.569 21.9829C321.595 21.7042 321.54 21.4241 321.41 21.1749C321.28 20.9257 321.082 20.7176 320.837 20.5748C320.592 20.4319 320.311 20.3601 320.026 20.3677C319.896 20.3717 319.767 20.3916 319.642 20.4269L308.103 0.791074L307.99 0.60583H282.613L294.861 21.4569H271.241L258.775 0.235341ZM148.739 21.4421L136.921 1.33197H160.549L172.366 21.4421H148.739ZM234.054 1.34681L245.872 21.4569H222.237L210.427 1.34681H234.054ZM209.115 1.34681L197.305 21.4569H173.671L185.488 1.34681H209.115ZM197.954 21.8496L209.771 1.7395L215.141 10.8758L221.589 21.8496L210.156 41.3002C209.91 41.2246 209.647 41.2246 209.402 41.3002L197.954 21.8496ZM185.488 43.0415H208.346C208.408 43.2948 208.541 43.5258 208.73 43.7084L203.21 53.0966L197.305 63.1516H173.678L179.583 53.0966L185.488 43.0415ZM87.4499 42.3005L75.6778 22.2127H99.305L111.115 42.3228L87.4499 42.3005ZM135.579 42.3005H111.99L100.172 22.1905H122.593C122.68 22.4974 122.866 22.7685 123.123 22.9633C123.38 23.1582 123.694 23.2666 124.018 23.2723C124.148 23.2706 124.277 23.2532 124.403 23.2204L135.579 42.3005ZM50.746 21.4421L38.9286 1.33197H62.5558L74.3731 21.4421H50.746ZM74.803 22.1831L86.6204 42.3228H62.9932L51.1758 22.2127L74.803 22.1831ZM51.1758 63.1665L62.9932 43.0638H86.6204L74.8105 63.1516H74.3656L51.1758 63.1665ZM75.6778 63.9074H99.305L110.73 83.3507C110.541 83.5332 110.408 83.7643 110.346 84.0176H87.4876L75.6778 63.9074ZM136.054 84.0176H113.196C113.134 83.7665 113 83.5379 112.812 83.3581L124.244 63.8926H147.871L136.054 84.0176ZM160.993 43.0564H184.621L178.716 53.1114L172.803 63.1665H149.176L160.993 43.0564ZM184.613 125.697H160.986L149.169 105.58H171.597C171.684 105.887 171.87 106.158 172.127 106.353C172.384 106.548 172.698 106.656 173.022 106.662C173.152 106.66 173.281 106.643 173.407 106.61L184.613 125.697ZM171.597 104.839H149.176L160.986 84.7363H184.613L173.407 103.809C173.281 103.776 173.152 103.759 173.022 103.757C172.698 103.763 172.384 103.871 172.127 104.066C171.87 104.261 171.684 104.532 171.597 104.839ZM185.488 83.9953L173.678 63.8852H197.305L209.115 83.9953H185.488ZM209.99 83.9953L198.15 63.8926H221.785L233.594 84.0027L209.99 83.9953ZM221.8 63.1442H198.15L204.062 53.0892L209.341 44.0641C209.466 44.103 209.595 44.123 209.726 44.1234C210.051 44.1172 210.366 44.0078 210.623 43.8115C210.88 43.6152 211.065 43.3425 211.151 43.0341H233.594L221.8 63.1442ZM211.197 42.3005C211.129 42.0516 210.996 41.8243 210.812 41.6411L222.237 22.1978H245.872L234.054 42.3005H211.197ZM247.169 22.1978L246.95 21.8274L247.169 21.4569L258.768 1.71729L270.585 21.8496L258.775 41.9301L247.169 22.1978ZM259.424 42.3005L271.241 22.1978H294.868L283.058 42.3005H259.424ZM283.926 1.34681H307.553L318.986 20.7974C318.798 20.9785 318.665 21.2066 318.601 21.4569H295.743L283.926 1.34681ZM136.311 124.608C136.178 124.613 136.046 124.633 135.918 124.668L124.388 105.032L124.244 104.839H75.263L63.9132 85.5217C64.1275 85.3938 64.306 85.2153 64.4325 85.0026C64.5589 84.7898 64.6294 84.5495 64.6375 84.3032C64.6456 84.0569 64.5911 83.8126 64.4789 83.5922C64.3667 83.3719 64.2004 83.1825 63.995 83.0412C63.7895 82.8999 63.5515 82.8111 63.3024 82.783C63.0532 82.7548 62.8009 82.7882 62.5682 82.8799C62.3355 82.9717 62.1297 83.1191 61.9695 83.3086C61.8094 83.4982 61.6998 83.724 61.6508 83.9657H37.624L49.8712 104.839H25.8066L13.122 126.401H38.4912L50.5122 105.95L62.3371 126.068L50.9043 145.519C50.78 145.48 50.6503 145.46 50.5197 145.459C50.1197 145.459 49.7361 145.615 49.4532 145.893C49.1704 146.171 49.0115 146.548 49.0115 146.941C49.0115 147.334 49.1704 147.711 49.4532 147.989C49.7361 148.267 50.1197 148.423 50.5197 148.423C50.8451 148.417 51.1597 148.308 51.4166 148.111C51.6735 147.915 51.8589 147.642 51.9451 147.334H74.3656H99.305L111.333 167.763L99.5237 187.873L87.5932 167.577L87.4876 167.392H62.9856L62.767 167.022L62.5482 167.392H38.4837L26.3421 146.726L26.2365 146.541H0.867249L13.4387 167.948L13.5519 168.133H37.6164L25.7991 188.243H25.3617L25.5804 188.614L13.1145 209.828H36.8397C36.9084 210.079 37.0407 210.308 37.2243 210.495L25.7991 229.938H0.874792L13.122 250.811L25.6935 272.189L25.7991 272.374H49.8636L38.0538 292.484H37.6164L37.8351 292.854L37.6164 293.225H38.0538L50.12 313.698L37.6164 334.92H62.5482L74.3656 355.022H50.3387L37.6164 376.614L25.3617 397.458H50.3387L61.7262 416.909C61.5081 417.113 61.3573 417.377 61.2932 417.666C61.2291 417.956 61.2547 418.257 61.3667 418.532C61.4787 418.807 61.6719 419.043 61.9215 419.209C62.1711 419.375 62.4656 419.463 62.767 419.463C63.0683 419.463 63.3628 419.375 63.6124 419.209C63.862 419.043 64.0552 418.807 64.1672 418.532C64.2792 418.257 64.3048 417.956 64.2407 417.666C64.1766 417.377 64.0258 417.113 63.8077 416.909L75.2253 397.458H100.172L87.5932 376.036L87.4876 375.851H63.423L75.2253 355.763H100.172L88.3096 335.579C88.494 335.396 88.6266 335.169 88.6942 334.92H111.982L124.674 313.328H100.172L112.419 292.484H87.0502L75.0217 312.957L63.2043 292.854L75.6703 271.633H50.7384L38.9211 251.552H87.0577L99.1994 272.218L99.305 272.403H124.674L112.819 252.219C113.098 251.943 113.255 251.571 113.257 251.182C113.221 250.85 113.073 250.54 112.836 250.301C112.599 250.062 112.287 249.909 111.95 249.866C111.613 249.823 111.272 249.893 110.981 250.065C110.689 250.236 110.466 250.499 110.346 250.811H87.4876L75.346 230.153L75.2404 229.968H51.1758L62.9856 209.858H85.8436C85.9377 210.163 86.1294 210.43 86.3902 210.619C86.651 210.809 86.9671 210.911 87.2915 210.91C87.4214 210.908 87.5506 210.891 87.6761 210.858L99.2145 230.494L99.3276 230.679H124.674L112.178 209.457L124.425 188.614L112.178 167.763L124.425 146.912L112.359 126.438H134.78C134.847 126.71 134.991 126.958 135.195 127.153C135.399 127.348 135.656 127.482 135.934 127.54C136.213 127.597 136.503 127.576 136.77 127.479C137.037 127.382 137.27 127.212 137.443 126.99C137.616 126.768 137.722 126.502 137.748 126.223C137.773 125.945 137.718 125.665 137.589 125.415C137.459 125.166 137.26 124.958 137.016 124.815C136.771 124.672 136.49 124.601 136.205 124.608H136.311ZM123.799 105.58L135.225 125.023C135.042 125.209 134.912 125.439 134.848 125.69H111.99L111.771 125.32L100.172 105.58H123.799ZM75.6703 146.541L87.4876 126.438H111.115L99.305 146.541H75.6703ZM87.4876 125.697L75.6778 105.58H99.305L111.115 125.697H87.4876ZM74.803 105.58L86.6204 125.697H62.9932L51.1758 105.58H74.803ZM38.9286 84.6992H61.6508C61.7384 85.0062 61.9243 85.2773 62.1811 85.4721C62.4379 85.667 62.7517 85.7754 63.0761 85.7811C63.1289 85.7811 63.1742 85.7811 63.2194 85.7811L74.3731 104.839H50.746L38.9286 84.6992ZM14.4267 125.66L26.244 105.58H49.8712L38.0614 125.66H14.4267ZM51.9451 146.541C51.8808 146.291 51.7478 146.063 51.5604 145.882L62.9932 126.438H86.6128L74.803 146.541H51.9451ZM74.5692 188.614L62.767 208.717L57.405 199.58L50.9571 188.614L62.767 168.504L68.1364 177.64L74.5692 188.614ZM39.6978 209.087C39.6277 208.839 39.4955 208.612 39.3132 208.428L50.5197 189.355L62.1184 209.087H39.6978ZM49.8636 188.984L38.6571 208.057C38.5289 208.025 38.3973 208.007 38.265 208.005C38.1352 208.008 38.0061 208.025 37.8804 208.057L26.6739 188.984H49.8636ZM75.2404 188.984H98.8676L87.6535 208.057C87.528 208.024 87.3988 208.007 87.2689 208.005C86.9445 208.011 86.6306 208.119 86.3739 208.314C86.1171 208.509 85.9311 208.78 85.8436 209.087H63.423L75.2404 188.984ZM88.6942 209.087C88.63 208.837 88.4969 208.609 88.3096 208.428L99.5237 189.355L111.115 209.087H88.6942ZM87.0502 168.133L98.8676 188.243H75.2253L63.408 168.133H87.0502ZM13.9893 167.392L2.17191 147.282H25.7991L37.6164 167.392H13.9893ZM38.4837 168.133H62.1184L50.3387 188.243H26.6739L38.4837 168.133ZM26.0178 189.355L37.2243 208.428C37.0399 208.611 36.9073 208.838 36.8397 209.087H14.4191L26.0178 189.355ZM2.17945 230.679H25.7991L37.6164 250.811H13.9968L2.17945 230.679ZM38.9211 293.225H62.5482L74.3656 313.328H50.7384L38.9211 293.225ZM38.9211 334.179L50.7384 314.069H74.3656L68.4381 324.124L62.5256 334.179H38.9211ZM98.8676 314.069L92.9551 324.124L87.6761 333.149C87.5522 333.103 87.423 333.073 87.2915 333.06C86.9662 333.066 86.6515 333.175 86.3947 333.372C86.1378 333.568 85.9524 333.841 85.8662 334.149H63.423L69.328 324.094L75.2253 314.069H98.8676ZM74.3656 355.763L62.5482 375.873H38.9211L50.7384 355.763H74.3656ZM26.6663 396.717L38.4837 376.614H62.1184L50.3387 396.717H26.6663ZM62.405 416.538L50.9571 397.095L62.767 376.985L68.1364 386.121L74.5843 397.088L63.1591 416.538C62.9123 416.472 62.6518 416.472 62.405 416.538ZM87.0728 376.614L98.8676 396.717H75.2253L63.408 376.614H87.0728ZM98.8902 355.022H75.2253L63.4155 334.92H85.8436C85.9281 335.234 86.1156 335.513 86.3773 335.713C86.639 335.912 86.9603 336.021 87.2915 336.024C87.4221 336.023 87.5518 336.003 87.6761 335.964L98.8902 355.022ZM123.385 314.069L111.552 334.179H88.6942C88.6278 333.927 88.4951 333.697 88.3096 333.512L93.8299 324.124L99.7348 314.069H123.385ZM111.137 293.225L99.2974 313.328H75.6703L87.4876 293.225H111.137ZM74.3656 272.374L62.5482 292.484H38.9211L50.7384 272.374H74.3656ZM49.8636 271.633H26.2063L14.4267 251.552H38.0538L49.8636 271.633ZM26.6814 230.679H50.3387L62.1184 250.811H38.4912L26.6814 230.679ZM123.37 271.633H99.7424L87.925 251.552H110.346C110.432 251.861 110.617 252.133 110.874 252.33C111.131 252.526 111.445 252.635 111.771 252.642C111.904 252.637 112.035 252.617 112.163 252.582L123.37 271.633ZM74.803 230.679L86.6204 250.811H62.9856L51.1758 230.679H74.803ZM26.6739 229.938L37.8804 210.858C38.0061 210.89 38.1352 210.907 38.265 210.91C38.5907 210.906 38.9063 210.798 39.1646 210.603C39.4228 210.408 39.6099 210.136 39.6978 209.828H62.1184L50.3387 229.938H26.6739ZM99.7424 229.938L88.3096 210.487C88.4969 210.306 88.63 210.078 88.6942 209.828H111.552L123.37 229.938H99.7424ZM123.588 188.614L111.771 208.717L100.172 188.984L99.9535 188.614L100.172 188.243L111.771 168.504L123.588 188.614ZM111.771 167.022L99.9535 146.912L111.771 126.809L123.588 146.912L111.771 167.022Z" fill="white"/>
<path opacity="0.2" d="M260.725 852L248.378 830.369L236.365 851.401L236.258 851.593H211.571L211.351 851.977L211.13 851.593H186.443L174.324 830.369L162.303 851.409L162.197 851.601H136.636L149.31 829.448L149.416 829.256H173.67H198.798L210.279 809.092C210.091 808.904 209.957 808.668 209.892 808.409H161.764L149.424 786.801H124.736L113.02 766.261C112.892 766.3 112.759 766.321 112.625 766.322C112.493 766.322 112.362 766.301 112.237 766.261L100.596 786.601L100.49 786.793H76.251L88.1425 807.61H137.95L125.998 828.534C126.182 828.694 126.325 828.896 126.415 829.124C126.506 829.351 126.542 829.597 126.519 829.841C126.496 830.085 126.416 830.32 126.285 830.527C126.154 830.733 125.976 830.905 125.766 831.027C125.556 831.15 125.32 831.22 125.078 831.232C124.836 831.243 124.594 831.196 124.374 831.094C124.153 830.992 123.96 830.838 123.81 830.645C123.66 830.453 123.559 830.226 123.513 829.985H75.8255L63.5769 851.432L63.4629 851.624H37.9019L50.2645 829.993L62.8019 808.002L50.2417 786.018H75.3696L87.5955 764.618L87.7018 764.426H111.173C111.277 764.124 111.471 763.862 111.728 763.677C111.985 763.492 112.293 763.392 112.609 763.392C112.925 763.392 113.234 763.492 113.491 763.677C113.748 763.862 113.942 764.124 114.046 764.426H137.517L149.857 786.033H174.103L186.01 765.193H161.756L149.416 743.601H148.975L149.196 743.217L148.975 742.833H149.416L161.65 721.41L161.756 721.218H187.325L175.372 742.135C175.653 742.421 175.811 742.807 175.813 743.21C175.814 743.408 175.775 743.605 175.699 743.788C175.624 743.972 175.512 744.138 175.372 744.277L186.884 764.426H236.699L224.131 786.417L236.289 807.641L248.378 828.834L260.284 808.025L260.064 807.641H260.505L260.725 807.257L260.938 807.641H285.625L297.973 829.241H321.003C321.071 828.959 321.216 828.702 321.422 828.5C321.628 828.298 321.886 828.159 322.167 828.099C322.448 828.04 322.739 828.061 323.008 828.162C323.278 828.263 323.513 828.439 323.687 828.669C323.862 828.899 323.968 829.175 323.994 829.463C324.02 829.752 323.964 830.043 323.834 830.301C323.703 830.559 323.503 830.775 323.256 830.923C323.009 831.071 322.726 831.145 322.439 831.137C322.308 831.133 322.178 831.112 322.052 831.076L310.426 851.424L310.312 851.616H284.744L297.084 830.009H273.285L260.725 852ZM149.857 830.024L137.95 850.864H161.756L173.663 830.024H149.857ZM235.818 850.848L247.724 830.009H223.911L212.012 850.848H235.818ZM210.69 850.848L198.791 830.009H174.977L186.884 850.848H210.69ZM199.444 829.602L211.351 850.441L216.761 840.974L223.257 829.602L211.738 809.445C211.491 809.524 211.226 809.524 210.978 809.445L199.444 829.602ZM186.884 807.641H209.915C209.977 807.378 210.112 807.139 210.302 806.95L204.74 797.221L198.791 786.801H174.985L180.934 797.221L186.884 807.641ZM88.1046 808.409L76.2434 829.225H100.049L111.948 808.386L88.1046 808.409ZM136.598 808.409H112.83L100.923 829.248H123.513C123.601 828.93 123.789 828.649 124.047 828.447C124.306 828.245 124.622 828.133 124.949 828.127C125.08 828.129 125.21 828.147 125.337 828.181L136.598 808.409ZM51.1231 830.024L39.2164 850.864H63.0222L74.9289 830.024H51.1231ZM75.362 829.256L87.2687 808.386H63.4629L51.5562 829.225L75.362 829.256ZM51.5562 786.786L63.4629 807.618H87.2687L75.3696 786.801H74.9213L51.5562 786.786ZM76.2434 786.018H100.049L111.561 765.869C111.37 765.68 111.236 765.441 111.173 765.178H88.1425L76.2434 786.018ZM137.076 765.178H114.046C113.983 765.438 113.848 765.675 113.658 765.861L125.177 786.033H148.983L137.076 765.178ZM162.204 807.625H186.01L180.06 797.206L174.103 786.786H150.298L162.204 807.625ZM186.002 721.986H162.197L150.29 742.833H172.888C172.976 742.515 173.163 742.234 173.422 742.032C173.681 741.83 173.997 741.718 174.324 741.712C174.455 741.714 174.585 741.732 174.711 741.766L186.002 721.986ZM172.888 743.601H150.298L162.197 764.433H186.002L174.711 744.669C174.585 744.703 174.455 744.721 174.324 744.722C173.997 744.716 173.681 744.604 173.422 744.402C173.163 744.2 172.976 743.919 172.888 743.601ZM186.884 765.201L174.985 786.041H198.791L210.69 765.201H186.884ZM211.571 765.201L199.642 786.033H223.455L235.354 765.193L211.571 765.201ZM223.47 786.809H199.642L205.599 797.229L210.918 806.581C211.043 806.541 211.174 806.52 211.305 806.52C211.633 806.526 211.95 806.639 212.209 806.843C212.468 807.046 212.654 807.329 212.741 807.648H235.354L223.47 786.809ZM212.787 808.409C212.719 808.667 212.585 808.902 212.399 809.092L223.911 829.241H247.724L235.818 808.409H212.787ZM249.031 829.241L248.811 829.625L249.031 830.009L260.718 850.464L272.624 829.602L260.725 808.793L249.031 829.241ZM261.379 808.409L273.285 829.241H297.091L285.192 808.409H261.379ZM286.066 850.848H309.872L321.391 830.692C321.202 830.504 321.068 830.268 321.003 830.009H297.973L286.066 850.848ZM137.335 723.115C137.201 723.11 137.068 723.089 136.94 723.053L125.322 743.402L125.177 743.601H75.8255L64.3899 763.619C64.6059 763.752 64.7857 763.937 64.9131 764.157C65.0405 764.378 65.1115 764.627 65.1197 764.882C65.1279 765.137 65.0729 765.39 64.9599 765.619C64.8469 765.847 64.6793 766.043 64.4723 766.19C64.2653 766.336 64.0254 766.428 63.7744 766.457C63.5234 766.487 63.2692 766.452 63.0347 766.357C62.8002 766.262 62.5929 766.109 62.4315 765.913C62.2701 765.716 62.1598 765.482 62.1104 765.232H37.9019L50.2417 743.601H25.9952L13.2147 721.257H38.7757L50.8876 742.449L62.8019 721.602L51.2827 701.446C51.1574 701.486 51.0267 701.507 50.8952 701.507C50.4921 701.507 50.1056 701.345 49.8206 701.057C49.5356 700.769 49.3755 700.379 49.3755 699.971C49.3755 699.564 49.5356 699.174 49.8206 698.886C50.1056 698.598 50.4921 698.436 50.8952 698.436C51.223 698.442 51.54 698.555 51.7988 698.759C52.0577 698.962 52.2444 699.245 52.3313 699.564H74.9213H100.049L112.169 678.395L100.27 657.555L88.2489 678.587L88.1425 678.778H63.4553L63.235 679.162L63.0146 678.778H38.7681L26.5347 700.194L26.4283 700.386H0.867249L13.5338 678.203L13.6478 678.011H37.8943L25.9876 657.171H25.5469L25.7672 656.787L13.2071 634.803H37.1116C37.1809 634.543 37.3142 634.306 37.4992 634.112L25.9876 613.963H0.874849L13.2147 592.333L25.8812 570.18L25.9876 569.988H50.2341L38.335 549.148H37.8943L38.1146 548.764L37.8943 548.38H38.335L50.4924 527.164L37.8943 505.173H63.0146L74.9213 484.341H50.7128L37.8943 461.965L25.5469 440.366H50.7128L62.1864 420.209C61.9666 419.998 61.8146 419.724 61.75 419.424C61.6855 419.124 61.7113 418.812 61.8241 418.527C61.937 418.242 62.1317 417.998 62.3831 417.826C62.6346 417.654 62.9313 417.562 63.235 417.562C63.5386 417.562 63.8353 417.654 64.0868 417.826C64.3383 417.998 64.533 418.242 64.6458 418.527C64.7587 418.812 64.7845 419.124 64.7199 419.424C64.6553 419.724 64.5033 419.998 64.2835 420.209L75.7875 440.366H100.923L88.2489 462.564L88.1425 462.756H63.896L75.7875 483.573H100.923L88.9708 504.49C89.1565 504.679 89.2901 504.915 89.3583 505.173H112.822L125.61 527.548H100.923L113.263 549.148H87.7018L75.5824 527.932L63.6757 548.764L76.2358 570.756H51.1155L39.2088 591.565H87.7094L99.9429 570.149L100.049 569.957H125.61L113.666 590.874C113.946 591.16 114.105 591.546 114.106 591.949C114.071 592.293 113.922 592.614 113.683 592.862C113.444 593.109 113.129 593.268 112.79 593.313C112.451 593.357 112.107 593.285 111.813 593.107C111.52 592.929 111.294 592.656 111.173 592.333H88.1425L75.9091 613.741L75.8027 613.933H51.5562L63.4553 634.772H86.4861C86.5809 634.456 86.774 634.179 87.0368 633.983C87.2996 633.787 87.6181 633.681 87.945 633.682C88.0759 633.684 88.206 633.702 88.3325 633.736L99.9581 613.387L100.072 613.196H125.61L113.02 635.187L125.36 656.787L113.02 678.395L125.36 700.002L113.202 721.218H135.792C135.86 720.936 136.005 720.68 136.211 720.478C136.417 720.276 136.675 720.137 136.956 720.077C137.236 720.017 137.528 720.039 137.797 720.14C138.066 720.24 138.302 720.416 138.476 720.646C138.65 720.877 138.757 721.152 138.783 721.441C138.809 721.73 138.753 722.02 138.622 722.278C138.492 722.536 138.292 722.752 138.045 722.9C137.798 723.048 137.515 723.123 137.228 723.115H137.335ZM124.729 742.833L136.24 722.685C136.056 722.492 135.925 722.254 135.861 721.994H112.83L112.609 722.378L100.923 742.833H124.729ZM76.2358 700.386L88.1425 721.218H111.948L100.049 700.386H76.2358ZM88.1425 721.986L76.2434 742.833H100.049L111.948 721.986H88.1425ZM75.362 742.833L87.2687 721.986H63.4629L51.5562 742.833H75.362ZM39.2164 764.472H62.1104C62.1986 764.154 62.386 763.873 62.6447 763.671C62.9034 763.469 63.2196 763.356 63.5465 763.351C63.5997 763.351 63.6453 763.351 63.6909 763.351L74.9289 743.601H51.1231L39.2164 764.472ZM14.5292 722.024L26.4359 742.833H50.2417L38.3426 722.024H14.5292ZM52.3313 700.386C52.2665 700.645 52.1325 700.882 51.9437 701.069L63.4629 721.218H87.2611L75.362 700.386H52.3313ZM75.1265 656.787L63.235 635.955L57.8325 645.423L51.3359 656.787L63.235 677.627L68.645 668.159L75.1265 656.787ZM39.9914 635.571C39.9208 635.828 39.7875 636.063 39.6039 636.254L50.8952 656.019L62.5815 635.571H39.9914ZM50.2341 656.403L38.9429 636.638C38.8137 636.672 38.6811 636.69 38.5477 636.692C38.417 636.689 38.2869 636.671 38.1602 636.638L26.869 656.403H50.2341ZM75.8027 656.403H99.6085L88.3097 636.638C88.1832 636.672 88.0531 636.69 87.9222 636.692C87.5953 636.686 87.2791 636.574 87.0204 636.372C86.7617 636.17 86.5743 635.889 86.4861 635.571H63.896L75.8027 656.403ZM89.3583 635.571C89.2936 635.83 89.1595 636.067 88.9708 636.254L100.27 656.019L111.948 635.571H89.3583ZM87.7018 678.011L99.6085 657.171H75.7875L63.8808 678.011H87.7018ZM14.0885 678.778L2.18177 699.618H25.9876L37.8943 678.778H14.0885ZM38.7681 678.011H62.5815L50.7128 657.171H26.869L38.7681 678.011ZM26.2079 656.019L37.4992 636.254C37.3134 636.064 37.1798 635.829 37.1116 635.571H14.5216L26.2079 656.019ZM2.18937 613.196H25.9876L37.8943 592.333H14.0961L2.18937 613.196ZM39.2088 548.38H63.0146L74.9213 527.548H51.1155L39.2088 548.38ZM39.2088 505.941L51.1155 526.781H74.9213L68.949 516.361L62.9918 505.941H39.2088ZM99.6085 526.781L93.6514 516.361L88.3325 507.008C88.2077 507.055 88.0775 507.086 87.945 507.1C87.6171 507.094 87.3002 506.981 87.0413 506.777C86.7825 506.574 86.5957 506.291 86.5089 505.972H63.896L69.8456 516.391L75.7875 526.781H99.6085ZM74.9213 483.573L63.0146 462.733H39.2088L51.1155 483.573H74.9213ZM26.8614 441.133L38.7681 461.965H62.5815L50.7128 441.133H26.8614ZM62.8702 420.593L51.3359 440.742L63.235 461.582L68.645 452.114L75.1417 440.75L63.6301 420.593C63.3814 420.662 63.1189 420.662 62.8702 420.593ZM87.7246 461.965L99.6085 441.133H75.7875L63.8808 461.965H87.7246ZM99.6313 484.341H75.7875L63.8884 505.173H86.4861C86.5712 504.847 86.7602 504.558 87.0239 504.351C87.2875 504.145 87.6112 504.031 87.945 504.029C88.0765 504.029 88.2072 504.05 88.3325 504.09L99.6313 484.341ZM124.311 526.781L112.389 505.941H89.3583C89.2913 506.202 89.1577 506.44 88.9708 506.632L94.5328 516.361L100.482 526.781H124.311ZM111.971 548.38L100.042 527.548H76.2358L88.1425 548.38H111.971ZM74.9213 569.988L63.0146 549.148H39.2088L51.1155 569.988H74.9213ZM50.2341 570.756H26.3979L14.5292 591.565H38.335L50.2341 570.756ZM26.8766 613.196H50.7128L62.5815 592.333H38.7757L26.8766 613.196ZM124.296 570.756H100.49L88.5833 591.565H111.173C111.26 591.245 111.447 590.963 111.706 590.759C111.965 590.556 112.282 590.443 112.609 590.436C112.743 590.441 112.876 590.462 113.005 590.498L124.296 570.756ZM75.362 613.196L87.2687 592.333H63.4553L51.5562 613.196H75.362ZM26.869 613.963L38.1602 633.736C38.2869 633.703 38.417 633.685 38.5477 633.682C38.8759 633.686 39.1939 633.798 39.4541 634C39.7144 634.202 39.9029 634.484 39.9914 634.803H62.5815L50.7128 613.963H26.869ZM100.49 613.963L88.9708 634.12C89.1595 634.307 89.2936 634.544 89.3583 634.803H112.389L124.296 613.963H100.49ZM124.516 656.787L112.609 635.955L100.923 656.403L100.703 656.787L100.923 657.171L112.609 677.627L124.516 656.787ZM112.609 679.162L100.703 700.002L112.609 720.834L124.516 700.002L112.609 679.162Z" fill="white"/>
</svg>
