<svg width="338" height="67" viewBox="0 0 338 67" fill="none" xmlns="http://www.w3.org/2000/svg">
<g clip-path="url(#clip0_96_29026)">
<path d="M53.6667 46.1165C53.724 44.0689 52.5781 42.3465 51.0072 40.7772C40.8516 30.625 30.7151 20.4487 20.5691 10.2821C17.8857 7.5933 15.2167 4.89017 12.5047 2.23009C9.45852 -0.755313 5.01335 -0.731392 1.98624 2.23009C-0.754388 4.90931 -0.673219 9.5453 2.2584 12.4876C15.2406 25.5297 28.2419 38.5525 41.2479 51.5611C43.5445 53.8575 46.6098 54.4317 49.4316 53.2212C52.0624 52.0921 53.7192 49.4225 53.6619 46.1165H53.6667Z" fill="white"/>
<path d="M71.4517 36.19C71.509 34.1232 70.3536 32.3913 68.7732 30.8029C58.5269 20.5645 58.6701 20.6841 48.4381 10.4313C45.7309 7.71859 43.0428 4.99154 40.3069 2.31233C37.2368 -0.697003 32.7535 -0.677866 29.7025 2.31233C26.9428 5.01546 27.0191 9.68494 29.9746 12.656C43.0666 25.8081 45.8168 28.559 58.9375 41.6824C61.2532 43.998 64.3423 44.5817 67.188 43.3569C69.8427 42.2182 71.5138 39.5247 71.4565 36.19H71.4517Z" fill="white"/>
<path d="M82.6007 27.9792C76.1789 21.5682 69.8334 15.2433 63.4927 8.91369C61.0147 6.4402 58.551 3.94758 56.0682 1.47888C54.2681 -0.310451 52.0861 -0.487471 50.5678 1.01002C49.0256 2.53143 49.2405 4.79919 51.0787 6.64115C58.126 13.698 65.1543 20.774 72.2112 27.8213C75.2383 30.8402 79.4113 30.9598 82.6007 27.9839V27.9792Z" fill="white"/>
<path d="M71.1945 66.4445C76.48 66.4445 81.7846 66.4445 87.2181 66.4445C87.2181 61.1483 87.2181 55.8425 87.2181 50.5558C79.426 49.4411 70.6216 58.1485 71.1945 66.4445Z" fill="white"/>
<path d="M123.869 56.8329C121.567 56.8329 119.371 56.5554 117.27 56.0052C115.169 55.455 113.484 54.7613 112.219 53.924L114.768 48.3646C116.034 49.1014 117.509 49.709 119.194 50.1922C120.875 50.6755 122.537 50.9195 124.17 50.9195C125.97 50.9195 127.244 50.7042 127.994 50.2688C128.744 49.8334 129.121 49.2354 129.121 48.4651C129.121 47.8336 128.83 47.3552 128.247 47.0394C127.665 46.7236 126.896 46.4796 125.946 46.3122C124.996 46.1447 123.936 45.9773 122.771 45.8098C121.601 45.6424 120.445 45.4079 119.295 45.1065C118.144 44.8051 117.079 44.3793 116.096 43.8291C115.112 43.2789 114.329 42.5182 113.747 41.5518C113.164 40.5854 112.873 39.3319 112.873 37.7961C112.873 36.0929 113.374 34.5811 114.372 33.2606C115.37 31.9401 116.788 30.9163 118.622 30.1795C120.455 29.4427 122.67 29.0791 125.273 29.0791C127.139 29.0791 129.016 29.2896 130.897 29.7058C132.778 30.1221 134.373 30.701 135.672 31.433L133.022 36.9923C131.756 36.2603 130.463 35.7389 129.145 35.4374C127.827 35.136 126.571 34.9877 125.368 34.9877C123.568 34.9877 122.269 35.2222 121.467 35.691C120.665 36.1599 120.269 36.7627 120.269 37.4947C120.269 38.1645 120.57 38.6716 121.166 39.0257C121.768 39.3749 122.551 39.6333 123.516 39.8007C124.48 39.9682 125.545 40.1356 126.714 40.3031C127.884 40.4705 129.03 40.705 130.167 41.0064C131.298 41.3078 132.358 41.7336 133.342 42.2838C134.325 42.834 135.108 43.5947 135.691 44.5611C136.273 45.5275 136.565 46.781 136.565 48.3168C136.565 49.953 136.063 51.417 135.065 52.6992C134.067 53.9862 132.621 54.9957 130.739 55.7325C128.854 56.4645 126.562 56.8329 123.864 56.8329H123.869Z" fill="white"/>
<path d="M155.152 56.8337C152.254 56.8337 149.676 56.2405 147.427 55.054C145.178 53.8675 143.412 52.2217 142.127 50.1166C140.843 48.0115 140.203 45.6241 140.203 42.9545C140.203 40.2848 140.843 37.8592 142.127 35.7876C143.412 33.716 145.178 32.0797 147.427 30.8789C149.676 29.678 152.254 29.0752 155.152 29.0752C158.051 29.0752 160.462 29.6684 162.577 30.855C164.692 32.0415 166.22 33.7208 167.151 35.8928L161.149 39.1988C160.414 37.9309 159.531 37.0028 158.499 36.4191C157.468 35.8354 156.332 35.5436 155.1 35.5436C153.801 35.5436 152.617 35.8354 151.552 36.4191C150.488 37.0028 149.633 37.8448 149.003 38.95C148.368 40.0504 148.053 41.39 148.053 42.9593C148.053 44.5285 148.368 45.8729 149.003 46.9924C149.633 48.1119 150.488 48.9636 151.552 49.5472C152.617 50.1309 153.801 50.4228 155.1 50.4228C156.399 50.4228 157.468 50.1309 158.499 49.5472C159.531 48.9636 160.414 48.021 161.149 46.7149L167.151 50.0209C166.215 52.1595 164.692 53.8292 162.577 55.0301C160.462 56.2309 157.984 56.8337 155.152 56.8337Z" fill="white"/>
<path d="M187.549 29.0752C189.683 29.0752 191.588 29.501 193.273 30.3526C194.954 31.2042 196.281 32.5056 197.246 34.2614C198.215 36.0172 198.697 38.2611 198.697 40.9977V56.4271H190.9V42.1986C190.9 40.0265 190.428 38.4237 189.478 37.3903C188.527 36.3569 187.186 35.8354 185.453 35.8354C184.221 35.8354 183.113 36.1034 182.129 36.6392C181.146 37.175 180.382 37.9597 179.828 38.9931C179.279 40.0265 179.002 41.3996 179.002 43.1028V56.4319H171.205V19.2578H179.002V36.9454L177.255 34.692C178.219 32.8883 179.604 31.5009 181.404 30.5344C183.204 29.568 185.252 29.08 187.553 29.08L187.549 29.0752Z" fill="white"/>
<path d="M216.682 56.8337C213.851 56.8337 211.325 56.2309 209.11 55.0301C206.89 53.8292 205.152 52.1834 203.882 50.0927C202.612 48.0019 201.981 45.6241 201.981 42.9545C201.981 40.2848 202.616 37.8544 203.882 35.7637C205.147 33.6777 206.89 32.0415 209.11 30.855C211.325 29.6684 213.851 29.0752 216.682 29.0752C219.514 29.0752 222.102 29.6684 224.331 30.855C226.566 32.0415 228.313 33.6777 229.584 35.7637C230.849 37.8496 231.484 40.2465 231.484 42.9545C231.484 45.6624 230.849 48.0498 229.584 50.1166C228.313 52.1882 226.566 53.8244 224.331 55.0253C222.097 56.2261 219.547 56.829 216.682 56.829V56.8337ZM216.682 50.4228C218.015 50.4228 219.189 50.1309 220.206 49.5472C221.223 48.9636 222.04 48.1024 222.656 46.9685C223.271 45.8346 223.582 44.495 223.582 42.9593C223.582 41.4235 223.271 40.0552 222.656 38.95C222.04 37.8496 221.223 37.0028 220.206 36.4191C219.189 35.8354 218.029 35.5436 216.73 35.5436C215.432 35.5436 214.262 35.8354 213.23 36.4191C212.194 37.0028 211.368 37.8448 210.757 38.95C210.141 40.0504 209.831 41.39 209.831 42.9593C209.831 44.5285 210.136 45.8298 210.757 46.9685C211.373 48.1024 212.199 48.9636 213.23 49.5472C214.262 50.1309 215.412 50.4228 216.678 50.4228H216.682Z" fill="white"/>
<path d="M250.549 56.8337C247.717 56.8337 245.192 56.2309 242.976 55.0301C240.756 53.8292 239.018 52.1834 237.748 50.0927C236.478 48.0019 235.848 45.6241 235.848 42.9545C235.848 40.2848 236.483 37.8544 237.748 35.7637C239.013 33.6777 240.756 32.0415 242.976 30.855C245.192 29.6684 247.717 29.0752 250.549 29.0752C253.38 29.0752 255.968 29.6684 258.198 30.855C260.432 32.0415 262.18 33.6777 263.45 35.7637C264.715 37.8496 265.35 40.2465 265.35 42.9545C265.35 45.6624 264.715 48.0498 263.45 50.1166C262.18 52.1882 260.432 53.8244 258.198 55.0253C255.963 56.2261 253.413 56.829 250.549 56.829V56.8337ZM250.549 50.4228C251.881 50.4228 253.055 50.1309 254.072 49.5472C255.089 48.9636 255.906 48.1024 256.522 46.9685C257.138 45.8346 257.448 44.495 257.448 42.9593C257.448 41.4235 257.138 40.0552 256.522 38.95C255.906 37.8448 255.089 37.0028 254.072 36.4191C253.055 35.8354 251.895 35.5436 250.596 35.5436C249.298 35.5436 248.128 35.8354 247.097 36.4191C246.061 37.0028 245.235 37.8448 244.623 38.95C244.007 40.0504 243.697 41.39 243.697 42.9593C243.697 44.5285 244.003 45.8298 244.623 46.9685C245.239 48.1024 246.065 48.9636 247.097 49.5472C248.128 50.1309 249.279 50.4228 250.544 50.4228H250.549Z" fill="white"/>
<path d="M268.563 56.4319V19.2578H276.36V56.4319H268.563Z" fill="white"/>
<path d="M290.56 56.8345C288.493 56.8345 286.712 56.4757 285.208 55.758C283.709 55.0404 282.549 54.0644 281.732 52.8253C280.916 51.5909 280.51 50.2035 280.51 48.6677C280.51 47.1319 280.901 45.7062 281.684 44.4862C282.467 43.2662 283.709 42.3237 285.409 41.6539C287.108 40.9841 289.343 40.654 292.107 40.654H299.207V45.1656H292.905C291.071 45.1656 289.811 45.467 289.128 46.065C288.445 46.6679 288.101 47.419 288.101 48.3185C288.101 49.3184 288.493 50.1126 289.276 50.701C290.059 51.2847 291.119 51.5766 292.451 51.5766C293.783 51.5766 294.977 51.2752 296.027 50.6771C297.078 50.0743 297.818 49.1557 298.252 47.9214L299.451 51.5766C298.882 53.2463 297.851 54.5428 296.352 55.4614C294.853 56.38 292.919 56.8393 290.551 56.8393L290.56 56.8345ZM298.758 56.4326V51.1699L298.257 50.0169V40.5966C298.257 38.9269 297.746 37.6255 296.729 36.6878C295.712 35.7549 294.156 35.286 292.055 35.286C290.622 35.286 289.214 35.5109 287.829 35.9606C286.445 36.4103 285.256 37.0227 284.253 37.7882L281.503 32.3245C282.969 31.2576 284.735 30.4443 286.803 29.8941C288.87 29.3439 290.971 29.0664 293.105 29.0664C297.207 29.0664 300.387 30.0376 302.654 31.9705C304.922 33.9081 306.054 36.9318 306.054 41.0415V56.4231H298.754L298.758 56.4326Z" fill="white"/>
<path d="M309.081 66.1488V29.4771H316.529V34.9886L316.381 43.0023L316.883 50.9682V66.1488H309.081ZM324.933 56.829C322.698 56.829 320.736 56.3266 319.031 55.3267C317.332 54.3268 316.004 52.7958 315.054 50.7433C314.104 48.6908 313.631 46.093 313.631 42.9545C313.631 39.816 314.08 37.175 314.983 35.1369C315.88 33.0988 317.188 31.5774 318.907 30.5775C320.621 29.5775 322.631 29.0752 324.933 29.0752C327.502 29.0752 329.789 29.6493 331.808 30.8023C333.823 31.9553 335.423 33.5677 336.607 35.6393C337.791 37.7109 338.383 40.1461 338.383 42.9545C338.383 45.7629 337.791 48.2411 336.607 50.2936C335.423 52.3461 333.823 53.9536 331.808 55.1018C329.789 56.2548 327.502 56.829 324.933 56.829ZM323.634 50.418C324.933 50.418 326.093 50.1166 327.11 49.5138C328.127 48.9109 328.943 48.0545 329.559 46.935C330.175 45.8155 330.486 44.4902 330.486 42.9497C330.486 41.4091 330.18 40.0456 329.559 38.9404C328.943 37.84 328.127 36.9932 327.11 36.4095C326.093 35.8259 324.933 35.534 323.634 35.534C322.335 35.534 321.166 35.8259 320.134 36.4095C319.103 36.9932 318.277 37.8353 317.661 38.9404C317.04 40.0408 316.735 41.3804 316.735 42.9497C316.735 44.5189 317.04 45.8155 317.661 46.935C318.277 48.0545 319.103 48.9157 320.134 49.5138C321.166 50.1118 322.335 50.418 323.634 50.418Z" fill="white"/>
</g>
<defs>
<clipPath id="clip0_96_29026">
<rect width="338" height="66.4444" fill="white"/>
</clipPath>
</defs>
</svg>
