<svg width="274" height="441" viewBox="0 0 274 441" fill="none" xmlns="http://www.w3.org/2000/svg">
<path opacity="0.2" d="M220.289 0L209.822 21.9573L199.638 0.607941L199.548 0.413086H178.62L178.433 0.0233459L178.246 0.413086H157.318L147.044 21.9573L136.854 0.600128L136.764 0.405273H115.095L125.839 22.8927L125.929 23.0875H146.49H167.792L177.525 43.5561C177.365 43.7466 177.251 43.9865 177.196 44.2498H136.396L125.936 66.1838H105.007L95.0749 87.0343C94.9663 86.994 94.8535 86.9729 94.7399 86.9719C94.6284 86.9723 94.5176 86.9934 94.4114 87.0343L84.5432 66.3864L84.453 66.1916H63.905L73.9858 45.0605H116.209L106.077 23.8202C106.233 23.6578 106.354 23.4526 106.431 23.2218C106.508 22.991 106.538 22.7413 106.519 22.4936C106.499 22.2458 106.431 22.0072 106.32 21.7978C106.209 21.5883 106.059 21.414 105.881 21.2895C105.702 21.1649 105.502 21.0938 105.297 21.082C105.092 21.0702 104.887 21.118 104.7 21.2216C104.513 21.3251 104.349 21.4813 104.222 21.6771C104.095 21.8729 104.009 22.1026 103.97 22.347H63.5443L53.1608 0.576782L53.0641 0.381927H31.3953L41.8754 22.3392L52.5037 44.6629L41.8561 66.9788H63.1578L73.522 88.7023L73.6122 88.8972H93.5096C93.5972 89.2035 93.7615 89.4692 93.9797 89.6572C94.1979 89.8452 94.4592 89.9462 94.727 89.9462C94.9949 89.9462 95.2561 89.8452 95.4743 89.6572C95.6925 89.4692 95.8568 89.2035 95.9444 88.8972H115.842L126.303 66.9632H146.857L156.951 88.1177H136.39L125.929 110.036H125.555L125.742 110.426L125.555 110.816H125.929L136.3 132.562L136.39 132.757H158.065L147.933 111.525C148.171 111.234 148.305 110.843 148.306 110.434C148.307 110.232 148.274 110.032 148.21 109.846C148.146 109.66 148.052 109.491 147.933 109.35L157.692 88.8972H199.921L189.267 66.5735L199.573 45.0293L209.822 23.5162L219.915 44.6395L219.729 45.0293H220.102L220.289 45.419L220.469 45.0293H241.397L251.865 23.1031H271.388C271.446 23.3892 271.569 23.6498 271.743 23.8548C271.918 24.0598 272.137 24.2009 272.375 24.2616C272.613 24.3223 272.86 24.3003 273.088 24.198C273.316 24.0957 273.516 23.9173 273.664 23.6836C273.811 23.4498 273.902 23.1701 273.924 22.877C273.946 22.5838 273.898 22.2892 273.788 22.027C273.677 21.7649 273.507 21.546 273.298 21.3958C273.089 21.2455 272.849 21.1699 272.606 21.1779C272.495 21.1821 272.384 21.2031 272.277 21.2402L262.422 0.584595L262.325 0.389709H240.65L251.111 22.3236H230.937L220.289 0ZM126.303 22.3081L116.209 1.15356H136.39L146.484 22.3081H126.303ZM199.174 1.16919L209.268 22.3236H189.08L178.993 1.16919H199.174ZM177.872 1.16919L167.785 22.3236H147.598L157.692 1.16919H177.872ZM168.339 22.7368L178.433 1.58228L183.019 11.193L188.526 22.7368L178.761 43.1975C178.552 43.1179 178.327 43.1179 178.117 43.1975L168.339 22.7368ZM157.692 45.0293H177.215C177.269 45.2957 177.382 45.5387 177.544 45.7308L172.829 55.6065L167.785 66.1838H147.604L152.648 55.6065L157.692 45.0293ZM73.9535 44.2498L63.8985 23.1187H84.0794L94.1666 44.2732L73.9535 44.2498ZM115.062 44.2498H94.9138L84.8202 23.0953H103.97C104.045 23.4182 104.204 23.7033 104.423 23.9083C104.643 24.1133 104.911 24.2273 105.188 24.2333C105.299 24.2316 105.409 24.2133 105.516 24.1787L115.062 44.2498ZM42.6033 22.3081L32.5097 1.15356H52.6905L62.7842 22.3081H42.6033ZM63.1513 23.0875L73.245 44.2732H53.0641L42.9705 23.1187L63.1513 23.0875ZM42.9705 66.1994L53.0641 45.0527H73.245L63.1578 66.1838H62.7777L42.9705 66.1994ZM63.8985 66.9788H84.0794L93.8381 87.4318C93.6765 87.6239 93.5627 87.8669 93.5096 88.1333H73.9858L63.8985 66.9788ZM115.468 88.1333H95.9444C95.8912 87.8692 95.7773 87.6288 95.6159 87.4396L105.381 66.9632H125.562L115.468 88.1333ZM136.77 45.0449H156.951L151.907 55.6221L146.857 66.1994H126.676L136.77 45.0449ZM156.944 131.978H136.764L126.67 110.816H145.827C145.901 111.138 146.06 111.424 146.279 111.629C146.499 111.834 146.767 111.948 147.044 111.954C147.155 111.952 147.265 111.934 147.372 111.899L156.944 131.978ZM145.827 110.036H126.676L136.764 88.8894H156.944L147.372 108.953C147.265 108.918 147.155 108.9 147.044 108.898C146.767 108.904 146.499 109.018 146.279 109.223C146.06 109.428 145.901 109.713 145.827 110.036ZM157.692 88.1099L147.604 66.9554H167.785L177.872 88.1099H157.692ZM178.62 88.1099L168.507 66.9632H188.694L198.781 88.1177L178.62 88.1099ZM188.707 66.176H168.507L173.557 55.5987L178.066 46.1049C178.172 46.1458 178.283 46.1669 178.394 46.1673C178.672 46.1608 178.941 46.0457 179.16 45.8392C179.38 45.6327 179.538 45.3459 179.612 45.0215H198.781L188.707 66.176ZM179.65 44.2498C179.592 43.9879 179.479 43.7489 179.322 43.5561L189.08 23.1031H209.268L199.174 44.2498H179.65ZM210.376 23.1031L210.189 22.7134L210.376 22.3236L220.283 1.5589L230.376 22.7368L220.289 43.8601L210.376 23.1031ZM220.843 44.2498L230.937 23.1031H251.117L241.03 44.2498H220.843ZM241.771 1.16919H261.952L271.717 21.6299C271.557 21.8204 271.443 22.0603 271.388 22.3236H251.865L241.771 1.16919ZM115.687 130.832C115.574 130.837 115.462 130.858 115.352 130.894L105.503 110.239L105.381 110.036H63.5443L53.85 89.7156C54.033 89.581 54.1855 89.3933 54.2935 89.1695C54.4015 88.9457 54.4617 88.6929 54.4686 88.4338C54.4755 88.1748 54.429 87.9177 54.3332 87.6859C54.2373 87.4541 54.0953 87.2549 53.9198 87.1063C53.7443 86.9576 53.541 86.8643 53.3282 86.8347C53.1154 86.805 52.8999 86.8401 52.7011 86.9366C52.5023 87.0332 52.3266 87.1882 52.1898 87.3876C52.053 87.587 51.9594 87.8246 51.9176 88.0788H31.3953L41.8561 110.036H21.3017L10.4673 132.718H32.1361L42.4036 111.205L52.5037 132.368L42.7386 152.828C42.6324 152.787 42.5216 152.766 42.4101 152.766C42.0684 152.766 41.7407 152.93 41.4991 153.223C41.2575 153.515 41.1218 153.911 41.1218 154.325C41.1218 154.738 41.2575 155.135 41.4991 155.427C41.7407 155.72 42.0684 155.884 42.4101 155.884C42.688 155.877 42.9567 155.762 43.1761 155.556C43.3956 155.349 43.5539 155.062 43.6275 154.738H62.7777H84.0794L94.3534 176.228L84.2662 197.382L74.0759 176.033L73.9858 175.838H53.0577L52.8709 175.448L52.6841 175.838H32.1296L21.759 154.099L21.6688 153.904H0L10.7378 176.423L10.8344 176.617H31.3889L21.2952 197.772H20.9216L21.1084 198.162L10.4608 220.478H30.7254C30.7841 220.741 30.8971 220.983 31.0539 221.179L21.2952 241.632H0.00644276L10.4673 263.589L21.205 286.077L21.2952 286.272H41.8497L31.7625 307.426H31.3889L31.5757 307.816L31.3889 308.206H31.7625L42.0687 329.742L31.3889 352.066H52.6841L62.7777 373.212H42.2555L31.3889 395.926L20.9216 417.852H42.2555L51.982 438.313C51.7957 438.528 51.6668 438.805 51.6121 439.11C51.5573 439.414 51.5792 439.731 51.6749 440.02C51.7705 440.31 51.9356 440.557 52.1488 440.732C52.362 440.907 52.6135 441 52.8709 441C53.1283 441 53.3798 440.907 53.593 440.732C53.8062 440.557 53.9713 440.31 54.0669 440.02C54.1626 439.731 54.1844 439.414 54.1297 439.11C54.075 438.805 53.9461 438.528 53.7598 438.313L63.5121 417.852H84.8202L74.0759 395.318L73.9858 395.123H53.4313L63.5121 373.992H84.8202L74.6879 352.759C74.8453 352.567 74.9586 352.328 75.0164 352.066H94.9074L105.748 329.352H84.8202L95.281 307.426H73.6122L63.3381 328.963L53.2445 307.816L63.8921 285.492H42.5969L32.5032 264.369H73.6186L83.9892 286.108L84.0794 286.303H105.748L95.6224 265.07C95.8604 264.78 95.9945 264.388 95.996 263.979C95.9659 263.63 95.8394 263.303 95.6369 263.052C95.4344 262.801 95.1678 262.64 94.8801 262.595C94.5925 262.55 94.3007 262.623 94.052 262.804C93.8033 262.984 93.6122 263.261 93.5096 263.589H73.9858L63.6151 241.858L63.5249 241.663H42.9705L53.0577 220.509H72.5815C72.6619 220.83 72.8256 221.111 73.0484 221.31C73.2712 221.509 73.5412 221.617 73.8183 221.616C73.9292 221.614 74.0396 221.595 74.1468 221.561L84.0021 242.217L84.0987 242.411H105.748L95.0749 220.088L105.536 198.162L95.0749 176.228L105.536 154.294L95.2294 132.757H114.38C114.437 133.043 114.56 133.304 114.734 133.509C114.909 133.714 115.128 133.855 115.366 133.916C115.604 133.976 115.851 133.954 116.079 133.852C116.308 133.75 116.507 133.571 116.655 133.338C116.803 133.104 116.893 132.824 116.915 132.531C116.937 132.238 116.89 131.943 116.779 131.681C116.668 131.419 116.499 131.2 116.289 131.05C116.08 130.9 115.84 130.824 115.597 130.832H115.687ZM105.001 110.816L114.76 131.269C114.604 131.464 114.493 131.706 114.438 131.97H94.9138L94.727 131.58L84.8202 110.816H105.001ZM63.8921 153.904L73.9858 132.757H94.1666L84.0794 153.904H63.8921ZM73.9858 131.978L63.8985 110.816H84.0794L94.1666 131.978H73.9858ZM63.1513 110.816L73.245 131.978H53.0641L42.9705 110.816H63.1513ZM32.5097 88.8504H51.9176C51.9923 89.1733 52.1512 89.4585 52.3705 89.6635C52.5898 89.8685 52.8579 89.9825 53.135 89.9884C53.1801 89.9884 53.2187 89.9884 53.2574 89.9884L62.7842 110.036H42.6033L32.5097 88.8504ZM11.5816 131.939L21.6753 110.816H41.8561L31.7689 131.939H11.5816ZM43.6275 153.904C43.5726 153.641 43.459 153.401 43.299 153.21L53.0641 132.757H73.2386L63.1513 153.904H43.6275ZM62.9517 198.162L52.8709 219.308L48.2911 209.698L42.7837 198.162L52.8709 177.007L57.4572 186.618L62.9517 198.162ZM33.1667 219.698C33.1068 219.437 32.9938 219.199 32.8382 219.004L42.4101 198.941L52.3169 219.698H33.1667ZM41.8497 198.551L32.2778 218.615C32.1683 218.581 32.0559 218.562 31.9428 218.56C31.832 218.563 31.7217 218.581 31.6143 218.615L22.0424 198.551H41.8497ZM63.5249 198.551H83.7058L74.1275 218.615C74.0202 218.58 73.9099 218.562 73.799 218.56C73.5219 218.566 73.2538 218.68 73.0345 218.885C72.8151 219.09 72.6563 219.375 72.5815 219.698H53.4313L63.5249 198.551ZM75.0164 219.698C74.9615 219.435 74.8479 219.195 74.6879 219.004L84.2662 198.941L94.1666 219.698H75.0164ZM73.6122 176.617L83.7058 197.772H63.5121L53.4184 176.617H73.6122ZM11.208 175.838L1.11436 154.683H21.2952L31.3889 175.838H11.208ZM32.1296 176.617H52.3169L42.2555 197.772H22.0424L32.1296 176.617ZM21.482 198.941L31.0539 219.004C30.8964 219.197 30.7832 219.436 30.7254 219.698H11.5752L21.482 198.941ZM1.1208 242.411H21.2952L31.3889 263.589H11.2145L1.1208 242.411ZM32.5032 308.206H52.6841L62.7777 329.352H42.5969L32.5032 308.206ZM32.5032 351.286L42.5969 330.132H62.7777L57.7148 340.709L52.6648 351.286H32.5032ZM83.7058 330.132L78.6558 340.709L74.1468 350.203C74.041 350.155 73.9306 350.124 73.8183 350.109C73.5404 350.116 73.2716 350.231 73.0522 350.437C72.8328 350.644 72.6745 350.931 72.6009 351.255H53.4313L58.4749 340.678L63.5121 330.132H83.7058ZM62.7777 373.992L52.6841 395.146H32.5032L42.5969 373.992H62.7777ZM22.036 417.072L32.1296 395.926H52.3169L42.2555 417.072H22.036ZM52.5617 437.923L42.7837 417.47L52.8709 396.316L57.4572 405.926L62.9645 417.462L53.2058 437.923C52.995 437.853 52.7725 437.853 52.5617 437.923ZM73.6315 395.926L83.7058 417.072H63.5121L53.4184 395.926H73.6315ZM83.7251 373.212H63.5121L53.4249 352.066H72.5815C72.6537 352.397 72.8139 352.69 73.0374 352.9C73.2609 353.11 73.5353 353.225 73.8183 353.227C73.9298 353.227 74.0406 353.206 74.1468 353.165L83.7251 373.212ZM104.647 330.132L94.5402 351.286H75.0164C74.9596 351.022 74.8463 350.78 74.6879 350.585L79.403 340.709L84.4466 330.132H104.647ZM94.1859 308.206L84.073 329.352H63.8921L73.9858 308.206H94.1859ZM62.7777 286.272L52.6841 307.426H32.5032L42.5969 286.272H62.7777ZM41.8497 285.492H21.6431L11.5816 264.369H31.7625L41.8497 285.492ZM22.0489 242.411H42.2555L52.3169 263.589H32.1361L22.0489 242.411ZM104.634 285.492H84.453L74.3594 264.369H93.5096C93.5832 264.693 93.7415 264.98 93.961 265.187C94.1804 265.393 94.4491 265.508 94.727 265.515C94.8403 265.51 94.9527 265.489 95.062 265.452L104.634 285.492ZM63.1513 242.411L73.245 263.589H53.0577L42.9705 242.411H63.1513ZM22.0424 241.632L31.6143 221.561C31.7217 221.594 31.832 221.613 31.9428 221.616C32.221 221.611 32.4906 221.498 32.7112 221.293C32.9318 221.088 33.0916 220.802 33.1667 220.478H52.3169L42.2555 241.632H22.0424ZM84.453 241.632L74.6879 221.171C74.8479 220.981 74.9615 220.741 75.0164 220.478H94.5402L104.634 241.632H84.453ZM104.821 198.162L94.727 219.308L84.8202 198.551L84.6334 198.162L84.8202 197.772L94.727 177.007L104.821 198.162ZM94.727 175.448L84.6334 154.294L94.727 133.147L104.821 154.294L94.727 175.448Z" fill="white"/>
</svg>
